<?xml version="1.0" encoding="UTF-8"?>
<svg width="90px" height="90px" viewBox="0 0 90 90" version="1.1" xmlns="http://www.w3.org/2000/svg" xmlns:xlink="http://www.w3.org/1999/xlink">
    <!-- Generator: Sketch 59.1 (86144) - https://sketch.com -->
    <title>Logo</title>
    <desc>Created with Sketch.</desc>
    <g id="Design-&amp;-Prototype" stroke="none" stroke-width="1" fill="none" fill-rule="evenodd">
        <g id="Splash" transform="translate(-142.000000, -268.000000)">
            <g id="Logo" transform="translate(142.000000, 268.000000)">
                <path d="M0,20 C0,8.9543 8.95431,0 20,0 C20,0 70,0 70,0 C81.0457,0 90,8.95431 90,20 C90,20 90,70 90,70 C90,81.0457 81.0457,90 70,90 C70,90 20,90 20,90 C8.9543,90 0,81.0457 0,70 C0,70 0,20 0,20 Z" id="Rectangle-1" fill="#FFFFFF"></path>
                <path d="M47.364,61.2473 L54.2834,61.2473 L54.2834,47.7281 L67.5948,47.7281 L67.5948,42.0232 L54.2834,42.0232 L54.2834,34.2249 L69.033,34.2249 L69.033,28.52 L47.364,28.52 L47.364,61.2473 Z M35.1036,28.52 C35.1036,43.7330667 35.1036,51.3396 35.1036,51.3396 C35.0876,54.4877 33.6814,56.1496 31.1246,56.1496 C28.71158,56.1496 27.14553,54.6475 27.09759,52.0427 C27.09759,52.0427 20.2099968,52.0427 20.2099968,52.0427 C20.1782,58.5786 24.8444,61.6947 30.773,61.6947 C37.4048,61.6947 41.9271,57.6837 41.9431,51.3396 C41.9431,51.3396 41.9431,43.7330667 41.9431,28.52 L35.1036,28.52 Z" id="JF" fill="#475BD8"></path>
            </g>
        </g>
    </g>
</svg>