<?xml version="1.0" encoding="UTF-8"?>
<svg width="50px" height="50px" viewBox="0 0 50 50" version="1.1" xmlns="http://www.w3.org/2000/svg" xmlns:xlink="http://www.w3.org/1999/xlink">
    <!-- Generator: Sketch 59.1 (86144) - https://sketch.com -->
    <title>Logo</title>
    <desc>Created with Sketch.</desc>
    <g id="Design-&amp;-Prototype" stroke="none" stroke-width="1" fill="none" fill-rule="evenodd">
        <g id="Register" transform="translate(-162.000000, -95.000000)">
            <g id="Logo" transform="translate(162.000000, 95.000000)">
                <path d="M0,11.1111 C0,4.97461 4.97461,0 11.1111,0 C11.1111,0 38.8889,0 38.8889,0 C45.0254,0 50,4.97461 50,11.1111 C50,11.1111 50,38.8889 50,38.8889 C50,45.0254 45.0254,50 38.8889,50 C38.8889,50 11.1111,50 11.1111,50 C4.97461,50 0,45.0254 0,38.8889 C0,38.8889 0,11.1111 0,11.1111 Z" id="Rectangle-1" fill="#475BD8"></path>
                <path d="M26.3156,34.0318 L30.1597,34.0318 L30.1597,26.5212 L37.5549,26.5212 L37.5549,23.35178 L30.1597,23.35178 L30.1597,19.01939 L38.3539,19.01939 L38.3539,15.85 L26.3156,15.85 L26.3156,34.0318 Z M19.50424,15.85 C19.50424,24.3017333 19.50424,28.5276 19.50424,28.5276 C19.49536,30.2765 18.71411,31.1998 17.29366,31.1998 C15.9531,31.1998 15.08307,30.3653 15.05644,28.9182 C15.05644,28.9182 11.2299993,28.9182 11.2299993,28.9182 C11.21233,32.5492 13.80466,34.2804 17.09834,34.2804 C20.78265,34.2804 23.2951,32.0521 23.304,28.5276 C23.304,28.5276 23.304,24.3017333 23.304,15.85 L19.50424,15.85 Z" id="JF" fill="#FFFFFF"></path>
            </g>
        </g>
    </g>
</svg>